<svg id="Слой_1" data-name="Слой 1" xmlns="http://www.w3.org/2000/svg" viewBox="0 0 1801.22 1801.22"><defs><style>.cls-1{fill:#6b7280;}</style></defs><path class="cls-1" d="M1516.79,152a132.42,132.42,0,0,1,132.43,132.43V1516.79a132.4,132.4,0,0,1-132.43,132.43H284.43A132.42,132.42,0,0,1,152,1516.79V284.43A132.44,132.44,0,0,1,284.43,152H1516.79m0-152H284.43C127.34,0,0,127.34,0,284.43V1516.79c0,157.09,127.34,284.43,284.43,284.43H1516.79c157.09,0,284.43-127.34,284.43-284.43V284.43C1801.22,127.34,1673.88,0,1516.79,0Z"/></svg>